# 3ds Max Wavefront OBJ Exporter v0.97b - (c)2007 guruware
# File Created: 04.04.2021 15:19:51

mtllib SM_INT_DeskMetalDrawer.mtl

#
# object SM_INT_DeskMetalDrawer
#

v  70.5230 0.4758 -39.9719
v  70.5230 22.4678 -39.9718
v  70.5230 22.4678 1.0395
v  70.5230 0.4758 1.0395
v  69.9983 22.9100 1.5612
v  69.9983 -0.0964 1.5612
v  69.9982 -0.0964 -40.4936
v  69.9982 22.9100 -40.4936
v  70.5230 11.8303 -25.0104
v  70.5230 11.2300 -25.0104
v  72.6713 11.2300 -25.0104
v  72.6713 11.8303 -25.0104
v  73.1524 10.9299 -25.0707
v  73.0586 10.9299 -25.3414
v  72.7757 10.9299 -25.4835
v  70.5230 10.9299 -25.4835
v  73.7090 11.2300 -25.1653
v  73.4005 11.2300 -25.6049
v  72.8904 11.2300 -25.8973
v  70.5230 11.2300 -25.8973
v  73.1524 10.9299 -13.8407
v  73.7090 11.2300 -13.7752
v  73.0586 10.9299 -13.6177
v  73.4136 11.2300 -13.3436
v  72.7757 10.9299 -13.4570
v  72.8905 11.2300 -13.0473
v  70.5230 11.2300 -13.0473
v  70.5230 10.9299 -13.4570
v  73.7090 11.8303 -25.1653
v  73.4005 11.8303 -25.6049
v  72.8904 11.8303 -25.8973
v  70.5230 11.8303 -25.8973
v  72.7757 12.1305 -25.4835
v  73.0586 12.1305 -25.3414
v  73.1524 12.1305 -25.0707
v  73.7090 11.8303 -13.7752
v  73.1524 12.1305 -13.8407
v  73.4136 11.8303 -13.3436
v  73.0586 12.1305 -13.6177
v  72.8905 11.8303 -13.0473
v  72.7757 12.1305 -13.4570
v  70.5230 12.1305 -13.4570
v  70.5230 11.8303 -13.0473
v  70.5230 12.1305 -25.4835
v  72.6713 11.8303 -13.8894
v  72.6713 11.2300 -13.8894
v  70.5230 11.2300 -13.8894
v  70.5230 11.8303 -13.8894
v  69.2217 22.9100 1.5612
v  69.2217 -0.0964 1.5612
v  69.2216 -0.0964 -40.4936
v  69.2216 22.9100 -40.4936
v  68.7290 22.4706 0.9837
v  68.7290 0.3429 0.9837
v  68.7289 0.3429 -39.9161
v  68.7289 22.4706 -39.9161
v  69.2641 20.5027 -0.0348
v  -0.1694 20.5027 -0.0348
v  -0.1694 1.3479 -0.0348
v  69.2641 1.3479 -0.0348
v  -0.1694 1.3479 -38.8976
v  69.2641 1.3479 -38.8976
v  -0.1694 20.5027 -38.8976
v  69.2641 20.5027 -38.8976
v  69.3320 20.4953 -1.7203
v  69.3320 2.9484 -1.7203
v  1.2528 2.9484 -1.7203
v  1.2528 20.4953 -1.7203
v  69.3319 2.9484 -37.2121
v  1.2528 2.9484 -37.2121
v  69.3319 20.4953 -37.2121
v  1.2528 20.4953 -37.2121
# 72 vertices

vn 1.0000 0.0000 -0.0000
vn 0.7051 0.0000 0.7091
vn 0.7370 -0.6759 -0.0000
vn 0.6444 0.7647 -0.0000
vn 0.7050 0.0000 -0.7092
vn 0.7051 0.0000 -0.7091
vn 0.0000 0.0000 1.0000
vn -0.5193 -0.8501 0.0879
vn -0.3172 -0.8968 0.3085
vn -0.3824 -0.8616 0.3337
vn -0.1218 -0.8501 0.5124
vn 0.0000 -0.8444 0.5357
vn 0.4737 -0.8718 -0.1245
vn 0.4628 -0.8830 -0.0779
vn 0.3704 -0.8382 -0.4002
vn 0.3891 -0.8207 -0.4184
vn 0.1433 -0.8147 -0.5619
vn 0.1480 -0.8197 -0.5534
vn 0.0000 -0.8095 -0.5871
vn 0.4638 -0.8809 0.0948
vn 0.4716 -0.8731 0.1239
vn 0.3745 -0.8428 0.3866
vn 0.3865 -0.8280 0.4063
vn 0.1466 -0.8173 0.5573
vn 0.1479 -0.8172 0.5571
vn 0.0000 -0.8067 0.5909
vn 0.8185 0.0000 -0.5744
vn 0.6741 0.0000 -0.7387
vn 0.2573 0.0000 -0.9663
vn 0.0000 0.0000 -1.0000
vn 0.1450 0.8158 -0.5598
vn 0.1314 0.8194 -0.5580
vn 0.4261 0.8256 -0.3700
vn 0.3907 0.8363 -0.3847
vn 0.4861 0.8653 -0.1224
vn 0.4527 0.8816 -0.1338
vn 0.4588 0.8790 0.1298
vn 0.4815 0.8670 0.1283
vn 0.3831 0.8396 0.3851
vn 0.4110 0.8300 0.3770
vn 0.1480 0.8172 0.5571
vn 0.1469 0.8171 0.5575
vn 0.0000 0.8066 0.5910
vn 0.0000 0.8094 -0.5872
vn -0.3173 0.8967 0.3086
vn -0.5194 0.8500 0.0879
vn -0.3825 0.8615 0.3338
vn -0.1218 0.8500 0.5125
vn 0.0000 0.8444 0.5358
vn -1.0000 0.0000 -0.0000
vn -0.3210 -0.8852 -0.3368
vn -0.5185 -0.8485 -0.1061
vn -0.4075 -0.8433 -0.3505
vn -0.1434 -0.8289 -0.5407
vn 0.0000 -0.8215 -0.5702
vn 0.6765 0.0000 0.7365
vn 0.8252 0.0000 0.5648
vn 0.2548 0.0000 0.9670
vn -0.5186 0.8484 -0.1062
vn -0.3211 0.8851 -0.3369
vn -0.4076 0.8432 -0.3506
vn -0.1435 0.8288 -0.5408
vn 0.0000 0.8214 -0.5703
vn 0.0000 -1.0000 -0.0000
vn 0.0000 1.0000 -0.0000
vn -0.7607 0.0000 0.6490
vn -0.6655 -0.7464 0.0000
vn -0.6656 0.7463 0.0000
vn -0.7607 0.0000 -0.6490
vn -1.0000 0.0000 0.0000
vn 0.0026 1.0000 0.0022
vn 0.0000 1.0000 0.0044
vn 0.0026 1.0000 -0.0022
vn 0.0000 1.0000 -0.0044
# 74 vertex normals

vt 0.8677 0.4287 0.4287
vt 0.8677 0.4834 0.4834
vt 0.7656 0.4834 0.4834
vt 0.7656 0.4287 0.4287
vt 0.7642 0.4844 0.4844
vt 0.7642 0.4272 0.4272
vt 0.8691 0.4272 0.4272
vt 0.8691 0.4844 0.4844
vt 0.9424 0.3071 0.3071
vt 0.9492 0.3071 0.3071
vt 0.9492 0.3315 0.3315
vt 0.9419 0.3320 0.3320
vt 0.9541 0.3433 0.3433
vt 0.9482 0.3394 0.3394
vt 0.9556 0.3398 0.3398
vt 0.9546 0.3364 0.3364
vt 0.9556 0.3071 0.3071
vt 0.9556 0.3330 0.3330
vt 0.9609 0.3472 0.3472
vt 0.9609 0.3408 0.3408
vt 0.9609 0.3340 0.3340
vt 0.9609 0.3071 0.3071
vt 0.9556 0.4678 0.4678
vt 0.9556 0.3481 0.3481
vt 0.9609 0.4673 0.4673
vt 0.9551 0.4741 0.4741
vt 0.9541 0.4717 0.4717
vt 0.9609 0.4731 0.4731
vt 0.9546 0.4780 0.4780
vt 0.9609 0.4805 0.4805
vt 0.9614 0.5039 0.5039
vt 0.9570 0.4814 0.4814
vt 0.9570 0.5039 0.5039
vt 0.9678 0.3472 0.3472
vt 0.9678 0.3408 0.3408
vt 0.9683 0.3340 0.3340
vt 0.9683 0.3071 0.3071
vt 0.9741 0.3364 0.3364
vt 0.9736 0.3398 0.3398
vt 0.9751 0.3433 0.3433
vt 0.9731 0.3481 0.3481
vt 0.9678 0.4673 0.4673
vt 0.9731 0.4678 0.4678
vt 0.9751 0.4717 0.4717
vt 0.9678 0.4731 0.4731
vt 0.9736 0.4741 0.4741
vt 0.9678 0.4805 0.4805
vt 0.9741 0.4780 0.4780
vt 0.9722 0.4814 0.4814
vt 0.9722 0.5039 0.5039
vt 0.9673 0.5039 0.5039
vt 0.9736 0.3330 0.3330
vt 0.9741 0.3071 0.3071
vt 0.9805 0.3394 0.3394
vt 0.9805 0.3071 0.3071
vt 0.9805 0.3320 0.3320
vt 0.9790 0.4673 0.4673
vt 0.9790 0.3491 0.3491
vt 0.9849 0.3486 0.3486
vt 0.9849 0.4644 0.4644
vt 0.9458 0.4824 0.4824
vt 0.9517 0.4824 0.4824
vt 0.9517 0.5039 0.5039
vt 0.9458 0.5039 0.5039
vt 0.9497 0.4678 0.4678
vt 0.9502 0.3491 0.3491
vt 0.9487 0.4756 0.4756
vt 0.9805 0.4756 0.4756
vt 0.9775 0.4824 0.4824
vt 0.9775 0.5039 0.5039
vt 0.3762 0.6345 0.6345
vt 0.3765 0.5720 0.5720
vt 0.3787 0.5720 0.5720
vt 0.3787 0.6348 0.6348
vt 0.4927 0.6370 0.6370
vt 0.3787 0.6367 0.6367
vt 0.4929 0.6348 0.6348
vt 0.3787 0.5698 0.5698
vt 0.4927 0.5698 0.5698
vt 0.4929 0.5720 0.5720
vt 0.4949 0.5720 0.5720
vt 0.4949 0.6345 0.6345
vt 0.3804 0.5732 0.5732
vt 0.3804 0.6333 0.6333
vt 0.4912 0.6333 0.6333
vt 0.4912 0.5732 0.5732
vt 0.4741 0.7080 0.7080
vt 0.3181 0.7080 0.7080
vt 0.3181 0.6650 0.6650
vt 0.4741 0.6650 0.6650
vt 0.3181 0.5776 0.5776
vt 0.4741 0.5776 0.5776
vt 0.3181 0.5347 0.5347
vt 0.4741 0.5347 0.5347
vt 0.2751 0.6650 0.6650
vt 0.2751 0.5776 0.5776
vt 0.2793 0.6997 0.6997
vt 0.2793 0.6604 0.6604
vt 0.4324 0.6604 0.6604
vt 0.4324 0.6997 0.6997
vt 0.2793 0.5808 0.5808
vt 0.4324 0.5808 0.5808
vt 0.2793 0.5413 0.5413
vt 0.4324 0.5413 0.5413
vt 0.4717 0.5808 0.5808
vt 0.4717 0.6604 0.6604
vt 0.2795 0.5376 0.5376
vt 0.4355 0.5376 0.5376
vt 0.4749 0.5769 0.5769
vt 0.4749 0.6643 0.6643
vt 0.4355 0.7036 0.7036
vt 0.2795 0.7036 0.7036
# 112 texture coords

o SM_INT_DeskMetalDrawer
g SM_INT_DeskMetalDrawer
usemtl MI_Desk_Metal_Dirty
s 1
f 1/1/1 2/2/1 3/3/1 
f 1/1/1 3/3/1 4/4/1 
f 4/4/2 3/3/2 5/5/2 
f 4/4/2 5/5/2 6/6/2 
f 7/7/3 1/1/3 4/4/3 
f 7/7/3 4/4/3 6/6/3 
f 2/2/4 8/8/4 5/5/4 
f 2/2/4 5/5/4 3/3/4 
f 1/1/5 7/7/5 8/8/6 
f 1/1/5 8/8/6 2/2/6 
f 9/9/7 10/10/7 11/11/7 
f 9/9/7 11/11/7 12/12/7 
f 13/13/8 11/14/9 14/15/10 
f 14/15/10 11/14/9 15/16/11 
f 10/10/12 16/17/12 15/18/11 
f 10/10/12 15/18/11 11/11/9 
f 17/19/13 13/13/14 14/15/15 
f 17/19/13 14/15/15 18/20/16 
f 18/20/16 14/15/15 15/16/17 
f 18/20/16 15/16/17 19/21/18 
f 19/21/18 16/17/19 20/22/19 
f 16/17/19 19/21/18 15/18/17 
f 21/23/20 13/24/14 17/19/13 
f 21/23/20 17/19/13 22/25/21 
f 22/25/21 23/26/22 21/27/20 
f 23/26/22 22/25/21 24/28/23 
f 23/26/22 24/28/23 25/29/24 
f 24/28/23 26/30/25 25/29/24 
f 26/30/25 27/31/26 25/32/24 
f 27/31/26 28/33/26 25/32/24 
f 29/34/27 17/19/27 18/20/28 
f 29/34/27 18/20/28 30/35/28 
f 30/35/28 18/20/28 19/21/29 
f 30/35/28 19/21/29 31/36/29 
f 31/36/29 19/21/29 20/22/30 
f 31/36/29 20/22/30 32/37/30 
f 31/36/31 33/38/32 34/39/33 
f 31/36/31 34/39/33 30/35/34 
f 30/35/34 34/39/33 35/40/35 
f 30/35/34 35/40/35 29/34/36 
f 29/34/36 35/41/35 36/42/37 
f 35/41/35 37/43/38 36/42/37 
f 36/42/37 37/44/38 38/45/39 
f 37/44/38 39/46/40 38/45/39 
f 38/45/39 39/46/40 40/47/41 
f 39/46/40 41/48/42 40/47/41 
f 40/47/41 41/49/42 42/50/43 
f 40/47/41 42/50/43 43/51/43 
f 33/52/32 31/36/31 32/37/44 
f 33/52/32 32/37/44 44/53/44 
f 12/54/45 35/40/46 34/39/47 
f 12/54/45 34/39/47 33/38/48 
f 33/52/48 44/53/49 9/55/49 
f 33/52/48 9/55/49 12/56/45 
f 45/57/50 12/58/50 11/59/50 
f 45/57/50 11/59/50 46/60/50 
f 45/61/30 46/62/30 47/63/30 
f 45/61/30 47/63/30 48/64/30 
f 46/65/51 11/66/9 13/24/8 
f 46/65/51 13/24/8 21/23/52 
f 21/27/52 23/26/53 46/67/51 
f 23/26/53 25/29/54 46/67/51 
f 46/62/51 25/32/54 28/33/55 
f 46/62/51 28/33/55 47/63/55 
f 22/25/1 17/19/1 29/34/1 
f 22/25/1 29/34/1 36/42/1 
f 24/28/56 22/25/57 36/42/57 
f 24/28/56 36/42/57 38/45/56 
f 24/28/56 38/45/56 26/30/58 
f 38/45/56 40/47/58 26/30/58 
f 26/30/58 40/47/58 43/51/7 
f 26/30/58 43/51/7 27/31/7 
f 37/43/59 35/41/46 12/58/45 
f 37/43/59 12/58/45 45/57/60 
f 45/68/60 39/46/61 37/44/59 
f 39/46/61 45/68/60 41/48/62 
f 42/50/63 41/49/62 45/69/60 
f 42/50/63 45/69/60 48/70/63 
f 6/71/7 5/72/7 49/73/7 
f 6/71/7 49/73/7 50/74/7 
f 7/75/64 6/76/64 50/74/64 
f 7/75/64 50/74/64 51/77/64 
f 5/78/65 8/79/65 52/80/65 
f 5/78/65 52/80/65 49/73/65 
f 8/81/30 7/82/30 51/77/30 
f 8/81/30 51/77/30 52/80/30 
f 50/74/66 49/73/66 53/83/66 
f 50/74/66 53/83/66 54/84/66 
f 51/77/67 50/74/67 54/84/67 
f 51/77/67 54/84/67 55/85/67 
f 49/73/68 52/80/68 56/86/68 
f 49/73/68 56/86/68 53/83/68 
f 52/80/69 51/77/69 55/85/69 
f 52/80/69 55/85/69 56/86/69 
f 56/86/70 55/85/70 54/84/70 
f 56/86/70 54/84/70 53/83/70 
f 57/87/7 58/88/7 59/89/7 
f 57/87/7 59/89/7 60/90/7 
f 60/90/64 59/89/64 61/91/64 
f 60/90/64 61/91/64 62/92/64 
f 62/92/30 61/91/30 63/93/30 
f 62/92/30 63/93/30 64/94/30 
f 61/91/50 59/89/50 58/95/50 
f 61/91/50 58/95/50 63/96/50 
f 65/97/30 66/98/30 67/99/30 
f 65/97/30 67/99/30 68/100/30 
f 66/98/65 69/101/65 70/102/65 
f 66/98/65 70/102/65 67/99/65 
f 69/101/7 71/103/7 72/104/7 
f 69/101/7 72/104/7 70/102/7 
f 70/102/1 72/105/1 68/106/1 
f 70/102/1 68/106/1 67/99/1 
f 72/104/71 71/103/72 64/107/72 
f 72/104/71 64/107/72 63/108/71 
f 72/105/71 63/109/71 58/110/73 
f 72/105/71 58/110/73 68/106/73 
f 68/100/73 58/111/73 57/112/74 
f 68/100/73 57/112/74 65/97/74 
# 0 polygons - 118 triangles

